<?xml version="1.0" standalone="no"?>
<!DOCTYPE svg PUBLIC "-//W3C//DTD SVG 20010904//EN"
 "http://www.w3.org/TR/2001/REC-SVG-20010904/DTD/svg10.dtd">
<svg version="1.0" xmlns="http://www.w3.org/2000/svg"
 width="300.000000pt" height="300.000000pt" viewBox="0 0 300.000000 300.000000"
 preserveAspectRatio="xMidYMid meet">
<metadata>
Created by potrace 1.10, written by Peter Selinger 2001-2011
</metadata>
<g transform="translate(0.000000,300.000000) scale(0.100000,-0.100000)"
fill="#FFD43B" stroke="none">
<path d="M552 2894 c-49 -25 -75 -69 -80 -133 -3 -46 0 -62 20 -90 72 -107
233 -94 277 22 l11 27 345 0 345 0 0 -170 0 -170 -54 0 c-81 0 -100 -19 -122
-130 l-18 -90 -43 -16 -43 -17 -68 45 c-37 25 -77 48 -89 52 -34 11 -70 -14
-167 -113 l-89 -91 -187 0 -188 0 -12 31 c-7 16 -29 42 -48 57 -29 22 -46 27
-93 27 -62 0 -94 -17 -133 -69 -31 -40 -29 -130 2 -174 69 -96 221 -85 270 20
l17 37 190 0 190 0 44 -70 43 -70 -16 -42 -16 -43 -90 -18 c-111 -22 -130 -40
-130 -123 l0 -54 -194 2 c-106 1 -198 -1 -205 -5 -8 -5 -11 -110 -11 -376 l0
-369 -35 -17 c-101 -48 -114 -201 -22 -266 44 -32 131 -36 175 -9 102 65 96
222 -11 274 l-37 19 0 344 0 344 170 0 170 0 0 -54 c0 -81 19 -100 130 -122
l90 -18 16 -43 17 -43 -45 -68 c-25 -37 -48 -77 -52 -89 -11 -34 14 -70 113
-167 l91 -89 0 -187 0 -188 -31 -12 c-16 -7 -42 -29 -57 -48 -22 -29 -27 -46
-27 -93 0 -62 17 -94 69 -133 40 -31 130 -29 174 2 96 69 85 221 -20 270 l-37
17 0 190 0 190 69 43 c70 43 70 44 112 30 l42 -14 18 -90 c24 -113 44 -134
124 -134 l55 0 -2 -194 c-1 -106 1 -198 5 -205 5 -8 110 -11 376 -11 l369 0
17 -35 c48 -101 201 -114 266 -22 34 47 37 132 6 176 -61 91 -192 98 -257 15
-11 -14 -23 -34 -26 -45 -6 -18 -20 -19 -351 -19 l-344 0 0 170 0 170 54 0
c80 0 100 22 124 134 l18 90 43 14 42 14 67 -45 c37 -24 77 -47 89 -51 34 -11
70 14 167 113 l89 91 187 0 188 0 12 -31 c7 -16 29 -42 48 -57 29 -22 46 -27
93 -27 62 0 94 17 133 69 31 40 29 130 -2 174 -69 96 -221 85 -270 -20 l-17
-37 -190 0 -190 0 -43 69 c-43 70 -44 70 -30 112 l14 42 90 18 c113 24 134 44
134 124 l0 55 194 -2 c106 -1 198 1 205 5 8 5 11 110 11 376 l0 369 35 17
c101 48 114 201 22 266 -47 34 -132 37 -176 6 -91 -61 -98 -192 -15 -257 14
-11 34 -23 45 -26 18 -6 19 -20 19 -351 l0 -344 -170 0 -170 0 0 54 c0 80 -22
100 -134 124 l-90 18 -14 43 -14 42 45 67 c24 37 47 77 51 89 11 34 -14 70
-113 167 l-91 89 0 187 0 188 31 12 c16 7 42 29 57 48 22 29 27 46 27 93 0 62
-17 94 -69 133 -40 31 -130 29 -174 -2 -96 -69 -85 -221 20 -270 l37 -17 0
-190 0 -190 -70 -44 -70 -43 -42 16 -43 16 -18 90 c-22 111 -40 130 -123 130
l-54 0 2 194 c1 106 -1 198 -5 205 -5 8 -110 11 -376 11 l-369 0 -17 35 c-9
20 -30 45 -47 57 -40 29 -121 34 -165 12z m133 -79 c35 -34 34 -93 0 -125 -57
-53 -145 -13 -145 66 0 75 92 113 145 59z m1356 -4 c71 -71 -10 -183 -99 -137
-57 29 -65 107 -15 146 37 29 79 26 114 -9z m774 -376 c56 -55 16 -145 -63
-145 -51 0 -86 35 -86 87 0 73 96 111 149 58z m-1182 -175 c4 -25 15 -69 23
-98 14 -50 17 -54 71 -77 73 -33 99 -32 158 8 113 76 89 78 188 -21 l87 -87
-50 -75 c-28 -42 -50 -86 -50 -101 0 -15 11 -52 25 -82 27 -61 28 -62 160 -91
l60 -13 0 -123 0 -123 -60 -13 c-132 -29 -133 -30 -160 -91 -14 -30 -25 -67
-25 -82 0 -15 22 -59 50 -101 l50 -75 -87 -87 c-99 -99 -75 -97 -188 -21 -59
39 -85 41 -158 8 -61 -27 -62 -28 -91 -160 l-13 -60 -123 0 -124 0 -9 45 c-4
25 -15 69 -23 98 -14 50 -17 54 -71 77 -73 33 -99 32 -158 -8 -113 -76 -89
-78 -188 21 l-87 87 50 75 c28 42 50 86 50 101 0 15 -11 52 -25 82 -27 61 -28
62 -160 91 l-60 13 0 123 0 123 60 13 c132 29 133 30 160 91 33 73 31 99 -8
158 -76 113 -78 89 21 188 l87 87 75 -50 c42 -28 86 -50 101 -50 15 0 51 11
82 24 60 27 63 32 87 146 6 30 13 61 16 68 3 10 33 12 126 10 l122 -3 9 -45z
m-1330 -210 c33 -26 43 -70 23 -108 -29 -57 -107 -65 -146 -15 -29 37 -26 79
9 114 35 35 77 38 114 9z m2515 -976 c31 -36 29 -79 -7 -115 -69 -68 -177 3
-140 93 25 60 103 72 147 22z m-2508 -389 c53 -57 13 -145 -66 -145 -75 0
-113 92 -59 145 34 35 93 34 125 0z m749 -360 c56 -29 63 -106 14 -145 -37
-29 -79 -26 -114 9 -33 33 -38 74 -13 109 28 40 69 50 113 27z m1379 -21 c50
-56 12 -144 -63 -144 -98 0 -118 138 -25 173 26 10 64 -3 88 -29z"/>
<path d="M1756 2004 c-15 -14 -15 -36 0 -83 2 -8 -1 -11 -8 -8 -102 45 -150
59 -212 64 -231 18 -441 -135 -501 -364 -18 -67 -19 -152 -4 -206 9 -33 14
-38 37 -35 l27 3 -3 90 c-3 70 1 105 17 157 68 214 299 335 512 268 93 -29
102 -38 51 -46 -51 -8 -71 -34 -46 -59 10 -9 26 -14 38 -11 12 2 49 8 84 12
72 8 93 23 87 62 -3 15 -9 56 -15 91 -11 78 -32 98 -64 65z m34 -139 c0 -22
-17 -35 -46 -35 -23 0 -17 44 9 56 28 13 37 8 37 -21z"/>
<path d="M1427 1736 c-67 -25 -111 -61 -142 -117 -53 -96 -36 -217 40 -294 71
-70 197 -92 280 -48 90 48 139 127 139 223 0 71 -22 127 -69 175 -62 61 -173
89 -248 61z m172 -89 c114 -76 101 -246 -24 -307 -88 -43 -191 -6 -235 85 -78
160 109 321 259 222z"/>
<path d="M1908 1624 c-4 -3 -5 -41 -1 -83 10 -136 -32 -245 -130 -338 -123
-116 -291 -143 -455 -73 -28 12 -52 26 -52 29 0 4 19 11 43 17 36 8 42 13 45
37 2 17 -2 29 -12 33 -22 8 -186 -44 -193 -62 -7 -19 36 -171 53 -185 7 -6 21
-9 31 -7 19 4 24 44 10 84 -7 20 -5 20 47 -6 177 -89 396 -52 540 93 97 96
147 215 145 342 -2 94 -10 120 -39 123 -14 2 -29 0 -32 -4z m-658 -473 c0 -31
-22 -57 -40 -46 -14 9 -13 62 3 68 27 12 37 6 37 -22z"/>
</g>
</svg>
